HIERARCHY
ROOT Hips
{
    OFFSET 0.000000 0.000000 0.000000
    CHANNELS 6 Xposition Yposition Zposition Zrotation Xrotation Yrotation
    JOINT Spine
    {
        OFFSET -0.000000 14.517291 0.000000
        CHANNELS 3 Zrotation Xrotation Yrotation
        JOINT Spine1
        {
            OFFSET -0.000000 37.558300 0.000000
            CHANNELS 3 Zrotation Xrotation Yrotation
            JOINT Neck
            {
                OFFSET -0.000000 37.404057 3.400369
                CHANNELS 3 Zrotation Xrotation Yrotation
                JOINT Head
                {
                    OFFSET -0.000000 24.785618 -3.540803
                    CHANNELS 3 Zrotation Xrotation Yrotation
                    End Site
                    {
                        OFFSET -0.000000 35.408028 0.000000
                    }
                }
            }
            JOINT LeftShoulder
            {
                OFFSET 6.992933 33.973492 -0.192664
                CHANNELS 3 Zrotation Xrotation Yrotation
                JOINT LeftArm
                {
                    OFFSET 21.527611 0.000000 0.000000
                    CHANNELS 3 Zrotation Xrotation Yrotation
                    JOINT LeftForeArm
                    {
                        OFFSET 56.353916 0.000000 0.000000
                        CHANNELS 3 Zrotation Xrotation Yrotation
                        JOINT LeftHand
                        {
                            OFFSET 47.774071 0.000000 0.000000
                            CHANNELS 3 Zrotation Xrotation Yrotation
                            End Site
                            {
                                OFFSET 26.556021 0.000000 0.000000
                            }
                        }
                    }
                }
            }
            JOINT RightShoulder
            {
                OFFSET -7.065357 33.973492 -0.192664
                CHANNELS 3 Zrotation Xrotation Yrotation
                JOINT RightArm
                {
                    OFFSET -21.527611 0.000000 0.000000
                    CHANNELS 3 Zrotation Xrotation Yrotation
                    JOINT RightForeArm
                    {
                        OFFSET -56.353916 0.000000 0.000000
                        CHANNELS 3 Zrotation Xrotation Yrotation
                        JOINT RightHand
                        {
                            OFFSET -47.774071 0.000000 0.000000
                            CHANNELS 3 Zrotation Xrotation Yrotation
                            End Site
                            {
                                OFFSET -26.556021 0.000000 0.000000
                            }
                        }
                    }
                }
            }
        }
    }
    JOINT LeftUpLeg
    {
        OFFSET 17.704014 0.000000 0.000000
        CHANNELS 3 Zrotation Xrotation Yrotation
        JOINT LeftLeg
        {
            OFFSET -0.000000 -81.181816 0.000000
            CHANNELS 3 Zrotation Xrotation Yrotation
            JOINT LeftFoot
            {
                OFFSET -0.000000 -62.821102 0.000000
                CHANNELS 3 Zrotation Xrotation Yrotation
                JOINT LeftToeBase
                {
                    OFFSET -0.000000 -11.507608 26.556021
                    CHANNELS 3 Zrotation Xrotation Yrotation
                    End Site
                    {
                        OFFSET -0.000000 0.000000 7.081605
                    }
                }
            }
        }
    }
    JOINT RightUpLeg
    {
        OFFSET -17.704014 0.000000 0.000000
        CHANNELS 3 Zrotation Xrotation Yrotation
        JOINT RightLeg
        {
            OFFSET -0.000000 -81.181816 0.000000
            CHANNELS 3 Zrotation Xrotation Yrotation
            JOINT RightFoot
            {
                OFFSET -0.000000 -62.821102 0.000000
                CHANNELS 3 Zrotation Xrotation Yrotation
                JOINT RightToeBase
                {
                    OFFSET -0.000000 -11.507608 26.556021
                    CHANNELS 3 Zrotation Xrotation Yrotation
                    End Site
                    {
                        OFFSET -0.000000 0.000000 7.081605
                    }
                }
            }
        }
    }
}
MOTION
Frames:    9
Frame Time:    0.008333
-13.201167    151.692505    -97.852036    4.097729    -5.919627    46.287922    -3.365211    -0.497569    -5.134338    -0.108302    5.791502    -1.701078    -2.869263    2.876423    -16.668062    15.959956    2.500839    -15.134972    7.943412    3.083099    -20.139339    -24.824062    17.609015    -66.300697    14.732518    -51.014858    -90.706329    -17.144859    -37.891293    -22.389574    1.915306    12.700542    -5.816040    33.688690    18.202276    44.901695    -12.563833    0.108595    33.313435    -26.271778    -3.429324    30.558767    17.233559    -1.002330    -4.974618    -18.923347    40.352360    -20.397062    7.486162    -31.029205    50.441509    0.000000    0.000000    0.000000    -25.326303    -15.475059    -23.930759    10.800521    32.302448    -19.145504    7.434035    5.286663    -8.044155    0.000000    0.000000    0.000000    
-13.225123    151.693268    -97.850060    4.093262    -5.921898    46.305656    -3.359311    -0.505574    -5.060616    -0.111899    5.777260    -1.676281    -2.890509    2.924869    -16.695198    15.971032    2.486504    -15.158819    7.911643    3.018279    -20.042110    -24.752594    17.452642    -65.639847    14.266146    -50.705189    -91.093010    -17.064167    -37.826038    -22.366198    1.885210    12.724598    -5.807265    33.692497    18.199726    44.883217    -12.576460    0.096453    33.330280    -26.250072    -3.418686    30.516302    17.247078    -1.015640    -4.977583    -18.920134    40.348667    -20.408005    7.492179    -31.008284    50.446278    0.000000    0.000000    0.000000    -25.322039    -15.478703    -23.966412    10.793857    32.318123    -19.150944    7.433513    5.286457    -8.035831    0.000000    0.000000    0.000000    
-13.246674    151.694565    -97.845901    4.090753    -5.927171    46.322929    -3.352919    -0.515793    -4.984201    -0.111479    5.764242    -1.650761    -2.899400    2.992302    -16.713573    15.960958    2.445994    -15.174351    7.880294    2.971860    -19.961361    -24.606106    17.345522    -65.016068    13.975633    -50.538349    -91.339409    -16.981009    -37.824863    -22.354753    1.851401    12.759294    -5.792556    33.676136    18.222477    44.875519    -12.639714    0.054321    33.313595    -26.224014    -3.424388    30.469471    17.258091    -1.026844    -4.985608    -18.915836    40.352215    -20.397259    7.486243    -31.001953    50.428669    0.000000    0.000000    0.000000    -25.319906    -15.474239    -23.983511    10.800208    32.328697    -19.147230    7.422838    5.286132    -8.021421    0.000000    0.000000    0.000000    
-13.270265    151.698547    -97.837547    4.084309    -5.935202    46.343571    -3.346982    -0.521369    -4.914908    -0.096480    5.747435    -1.628392    -2.962392    3.040105    -16.731726    16.000126    2.444021    -15.182050    7.821999    2.923231    -19.849739    -24.535418    17.196276    -64.410316    13.602204    -50.256325    -91.644379    -16.925144    -37.740578    -22.313253    1.798949    12.779243    -5.780698    33.658226    18.285503    44.891579    -12.723161    0.126188    33.368439    -26.543795    -3.201231    29.634886    17.279730    -1.035639    -4.992407    -18.907558    40.350277    -20.429575    7.479719    -31.003027    50.438580    0.000000    0.000000    0.000000    -25.307045    -15.466512    -24.001726    10.804355    32.327545    -19.153154    7.422397    5.292320    -8.025090    0.000000    0.000000    0.000000    
-13.291369    151.701538    -97.826591    4.078765    -5.952642    46.368458    -3.329030    -0.532232    -4.844690    -0.103474    5.750139    -1.604566    -2.973890    3.101448    -16.754372    16.001759    2.398074    -15.199505    7.778637    2.882247    -19.770807    -24.460037    17.066622    -63.822037    13.370421    -50.048763    -91.840294    -16.850718    -37.661644    -22.237225    1.780011    12.800033    -5.778088    33.654270    18.270824    44.896797    -12.746871    0.158506    33.333416    -26.488718    -3.183272    29.764122    17.310724    -1.036537    -5.008938    -18.913702    40.341534    -20.435671    7.478369    -31.000658    50.438839    0.000000    0.000000    0.000000    -25.289337    -15.452874    -24.027012    10.795962    32.338009    -19.167944    7.438149    5.300699    -8.008748    0.000000    0.000000    0.000000    
-13.313291    151.705490    -97.820496    4.066276    -5.961438    46.392319    -3.308451    -0.543538    -4.774231    -0.119861    5.741300    -1.580176    -2.990758    3.156980    -16.781893    16.031971    2.361765    -15.219205    7.742065    2.852761    -19.686680    -24.425402    16.899878    -63.242847    13.084713    -49.756672    -92.075844    -16.757885    -37.523972    -22.143431    1.770381    12.811332    -5.785500    33.647713    18.274874    44.903332    -12.782328    0.183083    33.283859    -26.424425    -3.187406    29.968241    17.335327    -1.047239    -5.017150    -18.907438    40.328037    -20.427025    7.455363    -31.005972    50.409660    0.000000    0.000000    0.000000    -25.275103    -15.449399    -24.044107    10.801657    32.338329    -19.174789    7.435760    5.311727    -8.014796    0.000000    0.000000    0.000000    
-13.334692    151.711090    -97.813202    4.058744    -5.972362    46.415890    -3.302263    -0.544846    -4.711184    -0.115221    5.723583    -1.559456    -3.009959    3.232964    -16.801842    16.052612    2.302893    -15.229236    7.683301    2.821143    -19.582798    -24.414799    16.728788    -62.696285    12.720477    -49.440994    -92.363510    -16.660494    -37.417847    -22.052208    1.746097    12.822952    -5.773901    33.687267    18.217281    44.884296    -12.741235    0.230136    33.269882    -26.444754    -3.197207    30.114290    17.357252    -1.047522    -5.012575    -18.880722    40.310528    -20.467649    7.452104    -30.997091    50.407772    0.000000    0.000000    0.000000    -25.263720    -15.444114    -24.051247    10.809834    32.351330    -19.158134    7.427966    5.316634    -8.033433    0.000000    0.000000    0.000000    
-13.354624    151.718750    -97.805405    4.052063    -5.981498    46.445110    -3.298904    -0.550231    -4.654371    -0.106233    5.711535    -1.540903    -3.069027    3.307269    -16.825663    16.125597    2.259188    -15.234333    7.614588    2.808635    -19.464767    -24.547258    16.435383    -62.153633    12.247448    -48.894569    -92.744492    -15.796233    -37.297287    -21.404179    1.705270    12.847890    -5.761225    33.743900    18.156811    44.873180    -12.705183    0.259155    33.270275    -26.447691    -3.207016    30.221619    17.378223    -1.051291    -5.022416    -18.867670    40.293034    -20.481384    7.447468    -30.986155    50.391289    0.000000    0.000000    0.000000    -25.251797    -15.432460    -24.048002    10.822315    32.347446    -19.183613    7.454057    5.326082    -8.053811    0.000000    0.000000    0.000000    
-13.373359    151.727249    -97.796745    4.048305    -5.991443    46.478573    -3.300824    -0.546491    -4.604673    -0.098808    5.689746    -1.524763    -3.108631    3.381087    -16.841843    16.187040    2.215524    -15.235129    7.504451    2.710871    -19.249849    -24.480366    16.404579    -61.746624    11.958696    -48.575775    -92.890381    -15.923426    -37.096428    -21.555172    1.684306    12.891393    -5.741670    33.750637    18.148062    44.873024    -12.753736    0.237704    33.251617    -26.421661    -3.242624    30.356373    17.397865    -1.058141    -5.020998    -18.851362    40.287464    -20.494389    7.430141    -30.975733    50.367966    0.000000    0.000000    0.000000    -25.242437    -15.414941    -24.065109    10.823074    32.345360    -19.190666    7.467818    5.338010    -8.051144    0.000000    0.000000    0.000000    
